<svg width="18" height="17" viewBox="0 0 18 17" fill="none" xmlns="http://www.w3.org/2000/svg">
<path d="M7.71752 2.39491L1.36502 12.9999C1.23404 13.2267 1.16474 13.4839 1.16401 13.7458C1.16327 14.0077 1.23113 14.2653 1.36084 14.4928C1.49054 14.7204 1.67756 14.91 1.9033 15.0428C2.12903 15.1756 2.38562 15.247 2.64752 15.2499H15.3525C15.6144 15.247 15.871 15.1756 16.0967 15.0428C16.3225 14.91 16.5095 14.7204 16.6392 14.4928C16.7689 14.2653 16.8368 14.0077 16.836 13.7458C16.8353 13.4839 16.766 13.2267 16.635 12.9999L10.2825 2.39491C10.1488 2.17449 9.96056 1.99225 9.73591 1.86577C9.51127 1.7393 9.25782 1.67285 9.00002 1.67285C8.74221 1.67285 8.48876 1.7393 8.26412 1.86577C8.03947 1.99225 7.85122 2.17449 7.71752 2.39491V2.39491Z" fill="#D9D9D9" stroke="#D9D9D9" stroke-width="2" stroke-linecap="round" stroke-linejoin="round"/>
</svg>
